# xmcd
#
# Track frame offsets:
#  150
#  54999
#  78811
#  109377
#  139708
#  168824
#  199063
#
# Disc length: 3147 seconds
#
# Revision: 0
# Processed by: cddbd v1.5.2PL0 Copyright (c) Steve Scherf et al.
# Submitted via: Collectorz.com_Music_Collector 6.11
#
DISCID=520c4907
DTITLE=Eric Clapton - Double Image - Part 1 (2CDs) [CD2)
DYEAR=2000
DGENRE=Blues
TTITLE0=Old Love
TTITLE1=Crossroads
TTITLE2=Have You Ever Loved A Woman
TTITLE3=Tearing Us Apart
TTITLE4=Wonderful Tonight
TTITLE5=Cocaine
TTITLE6=Sunshine Of Your Love
EXTD=
EXTT0=
EXTT1=
EXTT2=
EXTT3=
EXTT4=
EXTT5=
EXTT6=
PLAYORDER=
